<svg width="22" height="21" viewBox="0 0 22 21" fill="none" xmlns="http://www.w3.org/2000/svg">
<path d="M17 13.5V7.5C17 4.67157 17 3.25736 16.1213 2.37868C15.2426 1.5 13.8284 1.5 11 1.5H7C4.17157 1.5 2.75736 1.5 1.87868 2.37868C1 3.25736 1 4.67157 1 7.5V13.5C1 16.3284 1 17.7426 1.87868 18.6213C2.75736 19.5 4.17157 19.5 7 19.5H19M19 19.5C20.1046 19.5 21 18.6046 21 17.5V9.5C21 8.08579 21 7.37868 20.5607 6.93934C20.1213 6.5 19.4142 6.5 18 6.5H17V17.5C17 18.6046 17.8954 19.5 19 19.5ZM5 6.5H13M5 10.5H13M5 14.5H9" stroke="#7A0026" stroke-width="1.5" stroke-linecap="round" stroke-linejoin="round"/>
</svg>
