<svg width="111" height="44" viewBox="0 0 111 44" fill="none" xmlns="http://www.w3.org/2000/svg">
<path fill-rule="evenodd" clip-rule="evenodd" d="M62.0182 0.00397995C62.4757 0.0676592 62.9371 0.109449 63.3887 0.198998C65.377 0.596993 67.0386 1.52233 68.1555 3.27948C69.0348 4.66451 69.2903 6.19679 69.12 7.80668C68.8923 9.95585 67.9733 11.8244 66.7772 13.5816C65.6305 15.2631 64.1214 16.5526 62.4519 17.669C60.016 19.2948 57.382 20.5226 54.653 21.5534C51.3299 22.8091 47.9196 23.7484 44.4182 24.3334C43.224 24.5324 42.0179 24.6518 40.8178 24.819C40.7207 24.8329 40.6118 24.9165 40.5504 24.9981C39.4176 26.4806 38.2987 27.9731 37.1639 29.4556C35.6905 31.3819 34.1556 33.2565 32.4129 34.948C31.2939 36.0325 30.1017 37.0275 28.8283 37.923C28.753 37.9767 28.6798 38.0304 28.5649 38.112C28.6738 38.1697 28.757 38.2175 28.8402 38.2593C30.2978 38.9717 31.8484 39.2105 33.4506 39.1707C35.433 39.1229 37.352 38.7011 39.2453 38.1439C40.7188 37.7101 42.1783 37.2384 43.6537 36.8126C44.1389 36.6733 44.6479 36.5817 45.1529 36.5419C45.9649 36.4803 46.2976 36.9081 46.0996 37.7041C45.9233 38.4085 45.5134 38.9817 45.0381 39.509C43.8855 40.7786 42.4556 41.6383 40.8831 42.2671C38.4432 43.2422 35.8984 43.5347 33.2941 43.3875C30.0205 43.2044 26.9053 42.3507 23.899 41.0771C23.3999 40.8662 23.0474 40.8841 22.5801 41.1647C20.8096 42.2273 18.8727 42.876 16.8685 43.3357C14.7297 43.8253 12.5611 44.0561 10.3668 43.9884C8.13682 43.9208 5.95637 43.5904 3.91258 42.6313C2.88672 42.1497 1.97176 41.5129 1.25089 40.6214C0.335931 39.4951 -0.0502513 38.1857 0.00520056 36.7489C0.0547112 35.4216 0.379501 34.158 0.989471 32.9779C1.9579 31.1093 3.53432 30.0805 5.55831 29.6865C6.96243 29.4138 8.37051 29.4636 9.77463 29.6785C13.2503 30.2138 16.4546 31.5192 19.5322 33.1749C20.9502 33.9371 22.3186 34.7788 23.5524 35.8236C23.6059 35.8693 23.6574 35.9131 23.7089 35.9609C24.0178 36.2435 24.0198 36.2474 24.3743 35.9967C25.8992 34.9122 27.2717 33.6525 28.5748 32.3152C30.1987 30.6496 31.7118 28.8905 32.9872 26.9383C33.2407 26.5503 33.4625 26.1403 33.6962 25.7404C33.7338 25.6767 33.7615 25.605 33.8229 25.4737C33.5318 25.4737 33.2882 25.4817 33.0446 25.4737C30.1987 25.3682 27.3806 25.0558 24.6397 24.2359C22.9801 23.7404 21.4017 23.0658 20.0075 22.0091C18.5756 20.9246 17.5359 19.5674 17.1557 17.7685C16.8586 16.3616 17.0349 14.9905 17.5161 13.6512C18.2112 11.715 19.3896 10.0971 20.8175 8.65242C23.188 6.2545 26.0002 4.53516 29.0976 3.26356C32.6663 1.79894 36.3836 1.05668 40.2355 0.977079C41.1921 0.957179 42.1486 0.965139 43.1052 0.975089C43.3349 0.977079 43.5666 1.01887 43.7924 1.06464C44.7093 1.24971 45.0816 1.82083 44.8519 2.72428C44.6479 3.51828 44.1845 4.13915 43.4795 4.55108C43.2596 4.67844 42.9923 4.76599 42.7388 4.7839C40.0553 4.98091 37.3976 5.33911 34.7795 5.96794C31.9296 6.65249 29.1808 7.60569 26.6716 9.16384C25.2952 10.0195 24.0515 11.0285 23.0989 12.3637C22.4929 13.2154 22.0572 14.1408 21.9503 15.1955C21.8136 16.5447 22.2493 17.7008 23.1465 18.6899C24.0832 19.7207 25.2734 20.3455 26.5647 20.7933C28.2124 21.3644 29.9215 21.5932 31.6563 21.6529C33.304 21.7106 34.9438 21.6111 36.5777 21.4121C36.7401 21.3923 36.8332 21.3286 36.9144 21.1813C38.6888 17.9158 40.6653 14.7815 42.9606 11.8563C45.2995 8.8753 47.8978 6.16097 50.9833 3.94413C53.031 2.47354 55.2194 1.28354 57.6514 0.577093C58.5881 0.304466 59.5407 0.123379 60.5131 0.0457695C60.6121 0.0378096 60.7091 0.0159198 60.8062 0H62.0103L62.0182 0.00397995ZM42.4259 20.5963C42.5209 20.5903 42.5586 20.5883 42.5962 20.5843C44.6083 20.3236 46.6046 19.9615 48.583 19.5097C51.4447 18.859 54.2569 18.0451 56.9503 16.8571C58.7168 16.079 60.4002 15.1577 61.8519 13.8582C63.4857 12.3956 64.4601 10.5668 64.7334 8.39173C64.9651 6.54503 63.9887 5.15006 62.2063 4.64859C61.1904 4.36203 60.1606 4.368 59.1307 4.53715C57.1899 4.85355 55.4531 5.65949 53.8509 6.78383C52.8013 7.52012 51.9161 8.44347 50.9833 9.31309C47.6799 12.4035 44.9331 15.9298 42.7883 19.9217C42.6754 20.1306 42.5625 20.3396 42.4259 20.5923V20.5963ZM19.2153 38.6155C19.1004 38.51 19.041 38.4483 18.9757 38.3946C18.8073 38.2573 18.6469 38.11 18.4667 37.9926C15.6129 36.13 12.5076 34.952 9.11317 34.6057C8.24971 34.5181 7.3902 34.5818 6.56238 34.9122C4.94834 35.5549 4.76614 37.7916 5.89894 38.7329C6.26136 39.0334 6.68319 39.2881 7.11294 39.4791C8.07543 39.907 9.11317 40.0423 10.1549 40.1219C11.5907 40.2314 13.0245 40.1637 14.4504 39.9786C15.7753 39.8075 17.0864 39.5568 18.332 39.0493C18.6212 38.9319 18.8945 38.7727 19.2133 38.6135L19.2153 38.6155Z" fill="white"/>
<path fill-rule="evenodd" clip-rule="evenodd" d="M94.9922 26.0629C95.4992 25.2012 95.9765 24.3774 96.4617 23.5595C99.0877 19.1358 101.882 14.8215 104.918 10.6684C105.033 10.5132 105.146 10.4376 105.352 10.4336C107.142 10.3978 108.932 10.348 110.723 10.3042C110.8 10.3023 110.877 10.3042 111 10.3042C110.95 10.3998 110.913 10.4774 110.869 10.551C109.608 12.742 108.174 14.8195 106.714 16.8771C104.263 20.3397 101.785 23.7843 99.3432 27.2529C98.0738 29.0578 96.8756 30.9124 95.8616 32.8785C95.4319 33.7123 95.0259 34.5601 94.8536 35.4914C94.8021 35.762 94.7863 36.0486 94.814 36.3212C94.8695 36.8406 95.1626 37.1391 95.6775 37.2525C96.1944 37.3659 96.7073 37.2863 97.2143 37.1769C98.2461 36.958 99.2185 36.566 100.189 36.16C100.256 36.1322 100.326 36.1063 100.444 36.0585C100.329 36.3053 100.24 36.5083 100.141 36.7053C99.5017 37.9968 98.6818 39.1529 97.5549 40.0624C96.0498 41.2782 94.303 41.7916 92.3979 41.8354C91.3106 41.8593 90.2432 41.722 89.1797 41.5071C89.049 41.4812 88.8886 41.4991 88.7638 41.5509C87.3993 42.1319 86.0269 42.721 84.5613 42.9637C82.8443 43.2483 81.2164 42.9637 79.838 41.7996C78.9171 41.0215 78.4101 39.9847 78.1408 38.8246C77.7229 37.0296 77.8715 35.2466 78.3289 33.4855C79.1885 30.1801 80.8342 27.3444 83.4424 25.1176C84.9911 23.7943 86.7636 22.9267 88.7915 22.6341C89.857 22.4809 90.9165 22.4809 91.9444 22.867C93.2812 23.3684 94.1486 24.3595 94.7724 25.6052C94.8417 25.7425 94.9051 25.8798 94.9922 26.0569V26.0629ZM91.9939 31.2826C91.9642 30.9781 91.9463 30.6139 91.8929 30.2538C91.7562 29.3523 91.471 28.5066 90.8829 27.7922C90.358 27.1554 89.6926 26.8549 88.8608 26.9604C87.9895 27.0698 87.1814 27.3544 86.4368 27.818C85.0663 28.6717 84.0742 29.8697 83.3414 31.2905C82.6304 32.6676 82.1908 34.1203 82.3215 35.6904C82.4661 37.4316 83.488 38.554 85.3753 38.4127C86.7279 38.3112 87.9716 37.8455 89.0846 37.0893C91.0987 35.7202 91.9186 33.7163 91.9978 31.2806L91.9939 31.2826Z" fill="white"/>
<path fill-rule="evenodd" clip-rule="evenodd" d="M77.1565 36.0506C76.8139 39.342 74.3047 42.0404 71.0964 42.6075C70.3122 42.7468 69.5319 42.7727 68.7516 42.5876C67.3416 42.2553 66.5375 41.3718 66.3276 39.935C66.0701 38.154 66.5533 36.556 67.5356 35.0914C68.5734 33.5452 69.9953 32.4288 71.5916 31.5214C72.0471 31.2627 72.5164 31.0318 72.9996 30.7771C72.5382 30.0846 71.7916 29.5991 71.5836 28.6976C71.4945 28.7971 71.4291 28.8687 71.3658 28.9424C69.8983 30.6478 68.3318 32.2517 66.5454 33.6228C65.6542 34.3073 64.7155 34.9163 63.7253 35.4456C63.6065 35.5093 63.4916 35.6247 63.4282 35.7441C62.0558 38.343 60.1823 40.4723 57.6375 41.9648C56.4393 42.6692 55.156 43.1468 53.7638 43.2682C52.4508 43.3836 51.1714 43.2622 49.993 42.6016C48.684 41.8693 47.9473 40.7031 47.571 39.2843C47.1828 37.8236 47.2145 36.3471 47.4898 34.8785C48.0958 31.6448 49.5336 28.8329 51.819 26.4728C53.34 24.9027 55.1303 23.7664 57.2731 23.253C58.5564 22.9466 59.8536 22.8431 61.1428 23.2152C62.8658 23.7127 63.957 24.8848 64.5531 26.5464C65.0264 27.8638 65.0938 29.2269 64.965 30.61C64.9571 30.6955 64.9472 30.7791 64.9413 30.8647C64.9393 30.8945 64.9413 30.9244 64.9413 30.9582C64.975 30.9622 64.9987 30.9721 65.0165 30.9642C65.9929 30.606 66.9237 30.1602 67.7317 29.4896C69.1536 28.3096 69.5755 26.8151 68.9813 24.9763C68.8764 24.654 68.9417 24.4749 69.1774 24.2699C69.627 23.8799 70.1161 23.5575 70.6667 23.3466C71.4014 23.066 72.148 22.8212 72.9105 22.5526C72.966 22.66 73.0076 22.7396 73.0472 22.8192C73.6235 23.9993 74.3245 25.0878 75.3405 25.9395C76.0336 26.5206 76.806 26.9146 77.7328 26.9206C77.7942 26.9206 77.8556 26.9206 77.917 26.9146C78.3428 26.8867 78.3547 26.8827 78.4874 27.3066C78.832 28.413 78.5607 29.412 77.8972 30.3095C77.6497 30.6458 77.3288 30.9503 76.9842 31.1871C75.3167 32.3412 73.671 33.5253 72.2609 34.9959C71.7599 35.5173 71.3222 36.1043 70.8984 36.6933C70.7103 36.956 70.5954 37.2883 70.5142 37.6047C70.3756 38.144 70.6588 38.5122 71.2133 38.5798C71.7242 38.6415 72.2134 38.5301 72.6946 38.3808C73.8393 38.0286 74.885 37.4635 75.9029 36.8446C76.3168 36.5918 76.7208 36.3232 77.1546 36.0486L77.1565 36.0506ZM60.8656 31.0677C60.8656 30.8189 60.8834 30.5702 60.8616 30.3234C60.7903 29.5274 60.62 28.7613 60.1645 28.0867C59.7189 27.426 59.1089 27.1156 58.3088 27.1952C57.1245 27.3126 56.0393 27.6986 55.0669 28.3892C53.4865 29.5115 52.4508 31.0418 51.821 32.8586C51.3694 34.1581 51.1674 35.4874 51.4605 36.8585C51.7933 38.4047 52.8389 39.1967 54.3975 39.0614C55.3956 38.9738 56.3007 38.5858 57.1305 38.0505C59.6536 36.4207 60.723 33.985 60.8676 31.0677H60.8656Z" fill="white"/>
</svg>
