<?xml version="1.0" encoding="UTF-8"?>
<svg id="Logo_Lord_xA0_Image" xmlns="http://www.w3.org/2000/svg" version="1.1" viewBox="0 0 684 433">
  <!-- Generator: Adobe Illustrator 29.5.0, SVG Export Plug-In . SVG Version: 2.1.0 Build 137)  -->
  <defs>
    <style>
      .st0 {
        fill: #fff;
        fill-rule: evenodd;
      }
    </style>
  </defs>
  <path class="st0" d="M613.3,0c4.5.6,9.1,1,13.5,1.9,19.7,3.9,36.1,13,47.1,30.3,8.7,13.6,11.2,28.7,9.5,44.6-2.3,21.1-11.3,39.5-23.2,56.8-11.3,16.5-26.3,29.2-42.8,40.2-24.1,16-50.1,28.1-77.1,38.2-32.9,12.4-66.6,21.6-101.2,27.4-11.8,2-23.7,3.1-35.6,4.8-1,.1-2,1-2.6,1.8-11.2,14.6-22.3,29.3-33.5,43.9-14.6,19-29.7,37.4-47,54.1-11.1,10.7-22.8,20.5-35.5,29.3-.7.5-1.5,1.1-2.6,1.9,1.1.6,1.9,1,2.7,1.4,14.4,7,29.8,9.4,45.6,9,19.6-.5,38.6-4.6,57.3-10.1,14.6-4.3,29-8.9,43.6-13.1,4.8-1.4,9.8-2.3,14.8-2.7,8-.6,11.3,3.6,9.4,11.4-1.7,6.9-5.8,12.6-10.5,17.8-11.4,12.5-25.5,21-41.1,27.1-24.1,9.6-49.3,12.5-75,11-32.4-1.8-63.2-10.2-92.9-22.7-4.9-2.1-8.4-1.9-13,.9-17.5,10.4-36.7,16.8-56.5,21.4-21.2,4.8-42.6,7.1-64.3,6.4-22.1-.7-43.6-3.9-63.8-13.4-10.1-4.7-19.2-11-26.3-19.8C3.3,388.6-.5,375.7,0,361.6c.5-13.1,3.7-25.5,9.7-37.1,9.6-18.4,25.2-28.5,45.2-32.4,13.9-2.7,27.8-2.2,41.7,0,34.4,5.3,66.1,18.1,96.5,34.4,14,7.5,27.6,15.8,39.7,26.1.5.4,1,.9,1.6,1.4,3.1,2.8,3.1,2.8,6.6.3,15.1-10.7,28.6-23.1,41.5-36.2,16.1-16.4,31-33.7,43.6-52.9,2.5-3.8,4.7-7.9,7-11.8.4-.6.6-1.3,1.3-2.6-2.9,0-5.3,0-7.7,0-28.1-1-56-4.1-83.1-12.2-16.4-4.9-32-11.5-45.8-21.9-14.2-10.7-24.4-24-28.2-41.7-2.9-13.9-1.2-27.3,3.6-40.5,6.9-19,18.5-35,32.7-49.2,23.4-23.6,51.3-40.5,81.9-53,35.3-14.4,72.1-21.7,110.1-22.5,9.5-.2,18.9-.1,28.4,0,2.3,0,4.6.4,6.8.9,9.1,1.8,12.8,7.4,10.5,16.3-2,7.8-6.6,13.9-13.6,18-2.2,1.3-4.8,2.1-7.3,2.3-26.5,1.9-52.8,5.5-78.7,11.7-28.2,6.7-55.4,16.1-80.2,31.5-13.6,8.4-25.9,18.4-35.3,31.5-6,8.4-10.3,17.5-11.4,27.9-1.4,13.3,2.9,24.7,11.8,34.4,9.3,10.2,21,16.3,33.8,20.7,16.3,5.6,33.2,7.9,50.4,8.5,16.3.6,32.5-.4,48.7-2.4,1.6-.2,2.5-.8,3.3-2.3,17.6-32.1,37.1-63,59.8-91.8,23.1-29.3,48.8-56.1,79.3-77.9,20.2-14.5,41.9-26.2,65.9-33.1,9.3-2.7,18.7-4.5,28.3-5.2,1,0,1.9-.3,2.9-.4h11.9ZM419.5,202.6c.9,0,1.3,0,1.7-.1,19.9-2.6,39.6-6.1,59.2-10.6,28.3-6.4,56.1-14.4,82.7-26.1,17.5-7.7,34.1-16.7,48.5-29.5,16.1-14.4,25.8-32.4,28.5-53.8,2.3-18.2-7.4-31.9-25-36.8-10.1-2.8-20.2-2.8-30.4-1.1-19.2,3.1-36.4,11-52.2,22.1-10.4,7.3-19.1,16.3-28.3,24.9-32.7,30.4-59.8,65.1-81,104.4-1.1,2.1-2.2,4.1-3.6,6.6ZM190,380c-1.1-1-1.7-1.6-2.4-2.2-1.7-1.3-3.3-2.8-5-4-28.2-18.3-58.9-29.9-92.5-33.3-8.5-.9-17-.2-25.2,3-16,6.3-17.8,28.3-6.6,37.6,3.6,3,7.7,5.5,12,7.3,9.5,4.2,19.8,5.5,30.1,6.3,14.2,1.1,28.4.4,42.5-1.4,13.1-1.7,26.1-4.1,38.4-9.1,2.9-1.2,5.6-2.7,8.7-4.3Z"/>
</svg>